HIERARCHY
ROOT hip
{
	OFFSET 0.000000 0.000000 0.000000 
	CHANNELS 6 Xposition Yposition Zposition Xrotation Zrotation Yrotation
	JOINT abdomen
	{
		OFFSET 0.000000 3.402643 0.000000 
		CHANNELS 3 Xrotation Zrotation Yrotation
		JOINT chest
		{
			OFFSET 0.000000 8.438565 -0.680529 
			CHANNELS 3 Xrotation Zrotation Yrotation
			JOINT neck
			{
				OFFSET 0.000000 10.207942 -0.272212 
				CHANNELS 3 Xrotation Zrotation Yrotation
				JOINT head
				{
					OFFSET 0.000000 3.130431 0.000000 
					CHANNELS 3 Xrotation Zrotation Yrotation
					End Site
					{
						OFFSET 0.000000 3.130435 0.000000 
					}
				}
			}
			JOINT lCollar
			{
				OFFSET 3.470700 6.669187 -0.816635 
				CHANNELS 3 Yrotation Zrotation Xrotation
				JOINT lShldr
				{
					OFFSET 3.198488 0.000000 0.000000 
					CHANNELS 3 Zrotation Yrotation Xrotation
					JOINT lForeArm
					{
						OFFSET 10.139888 0.000000 0.000000 
						CHANNELS 3 Yrotation Zrotation Xrotation
						JOINT lHand
						{
							OFFSET 8.370511 0.000000 0.000000 
							CHANNELS 3 Zrotation Yrotation Xrotation
							End Site
							{
								OFFSET 4.083176 0.000000 0.000000 
							}
						}
					}
				}
			}
			JOINT rCollar
			{
				OFFSET -3.470700 6.669187 -0.816635 
				CHANNELS 3 Yrotation Zrotation Xrotation
				JOINT rShldr
				{
					OFFSET -3.198488 0.000000 0.000000 
					CHANNELS 3 Zrotation Yrotation Xrotation
					JOINT rForeArm
					{
						OFFSET -10.139888 0.000000 0.000000 
						CHANNELS 3 Yrotation Zrotation Xrotation
						JOINT rHand
						{
							OFFSET -8.370511 0.000000 0.000000 
							CHANNELS 3 Zrotation Yrotation Xrotation
							End Site
							{
								OFFSET -4.083176 0.000000 0.000000 
							}
						}
					}
				}
			}
		}
	}
	JOINT lThigh
	{
		OFFSET 5.308129 -1.633274 1.361059 
		CHANNELS 3 Xrotation Zrotation Yrotation
		JOINT lShin
		{
			OFFSET -2.041588 -20.007561 0.000000 
			CHANNELS 3 Xrotation Zrotation Yrotation
			JOINT lFoot
			{
				OFFSET 0.000000 -19.190928 -1.224953 
				CHANNELS 3 Xrotation Yrotation Zrotation
				End Site
				{
					OFFSET 0.000000 -2.449906 4.627600 
				}
			}
		}
	}
	JOINT rThigh
	{
		OFFSET -5.308129 -1.633274 1.361059 
		CHANNELS 3 Xrotation Zrotation Yrotation
		JOINT rShin
		{
			OFFSET 2.041588 -20.007561 0.000000 
			CHANNELS 3 Xrotation Zrotation Yrotation
			JOINT rFoot
			{
				OFFSET 0.000000 -19.190928 -1.224953 
				CHANNELS 3 Xrotation Yrotation Zrotation
				End Site
				{
					OFFSET 0.000000 -2.449906 4.627600 
				}
			}
		}
	}
}
MOTION
Frames: 10
Frame Time: 0.016667
0.000000 49.410294 0.913401 0.000000 0.000000 0.000000 20.732422 -0.527344 -0.312590 0.000000 0.000000 0.000000 -26.357422 -1.425781 0.448976 5.595703 2.050781 -0.214844 0.000000 0.000000 0.000000 -74.804688 -13.427734 -4.560547 -0.683594 -5.947266 6.044921 3.398438 -0.849609 -6.152472 0.000000 0.000000 0.000000 73.212883 16.152344 -5.156250 -0.039063 3.134766 5.078125 -2.050781 1.523438 -5.429688 -2.801423 3.826478 0.180383 8.653528 -3.785715 -1.268673 -5.441150 0.280416 0.111243 -2.106794 -5.392499 -0.409908 7.937836 4.824757 0.704857 -6.144424 0.158915 0.443387 
0.000000 48.722824 1.370100 0.000000 0.000000 0.000000 20.732422 -0.527344 -0.312590 0.000000 0.000000 0.000000 -26.357422 -1.425781 0.448976 5.595703 2.050781 -0.214844 0.000000 0.000000 0.000000 -75.058594 -8.535157 -3.964844 -0.683594 -5.947266 6.044921 3.398438 -0.849609 -6.152472 0.000000 0.000000 0.000000 73.281250 13.691408 -4.941407 -0.039063 3.134766 5.078125 -2.050781 1.523438 -5.429688 -8.327344 3.787499 0.226212 20.782770 -3.433408 -1.926591 -11.249746 0.077907 0.016956 -6.947601 -5.386348 -0.361796 19.499720 4.546817 1.627492 -12.993208 0.259889 0.330424 
0.000000 47.673527 1.826799 0.000000 0.000000 0.000000 20.732422 -0.527344 -0.312590 0.000000 0.000000 0.000000 -26.357422 -1.425781 0.448976 5.595703 2.050781 -0.214844 0.000000 0.000000 0.000000 -75.468750 -3.476562 -3.311138 -0.683594 -5.947266 6.044921 3.398438 -0.849609 -6.152472 0.000000 0.000000 0.000000 73.505859 11.425781 -4.636737 -0.039063 3.134766 5.078125 -2.050781 1.523438 -5.429688 -13.907383 3.795984 0.246795 32.854469 -3.267134 -2.381086 -16.698990 -0.138481 0.144082 -11.842049 -5.408423 -0.305919 31.151642 4.184196 2.651824 -19.314466 0.177849 0.305410 
0.000000 46.262409 2.740200 0.000000 0.000000 0.000000 20.732422 -0.527344 -0.312590 0.000000 0.000000 0.000000 -26.357422 -1.425781 0.448976 5.595703 2.050781 -0.214844 0.000000 0.000000 0.000000 -75.664063 1.250000 -2.607422 -0.683594 -5.947266 6.044921 3.398438 -0.849609 -6.152472 0.000000 0.000000 0.000000 73.564453 8.955078 -4.443358 -0.039063 3.134766 5.078125 -2.050781 1.523438 -5.429688 -19.514130 3.806895 0.114583 44.876778 -2.873728 -2.912233 -22.490135 -0.093669 0.156073 -16.696892 -5.458189 -0.607044 42.710079 3.362192 3.633672 -26.346434 0.240000 0.161514 
0.000000 44.409855 3.196900 0.000000 0.000000 0.000000 20.732422 -0.527344 -0.312590 0.000000 0.000000 0.000000 -26.357422 -1.425781 0.448976 5.595703 2.050781 -0.214844 0.000000 0.000000 0.000000 -75.869141 6.318359 -1.912988 -0.683594 -5.947266 6.044921 3.398438 -0.849609 -6.152472 0.000000 0.000000 0.000000 73.769531 6.689453 -4.022300 -0.039063 3.134766 5.078125 -2.050781 1.523438 -5.429688 -25.229631 3.827113 0.163315 57.395344 -2.026082 -3.424598 -28.125000 -0.002494 0.009806 -21.667213 -5.429027 -0.371732 53.843468 2.609082 3.990223 -32.331303 0.212291 0.558553 
0.000000 42.209957 3.653600 0.000000 0.000000 0.000000 20.732422 -0.527344 -0.312590 0.000000 0.000000 0.000000 -26.357422 -1.425781 0.448976 5.595703 2.050781 -0.214844 0.000000 0.000000 0.000000 -75.917969 11.220703 -1.318359 -0.683594 -5.947266 6.044921 3.398438 -0.849609 -6.152472 0.000000 0.000000 0.000000 73.808594 4.404297 -3.837139 -0.039063 3.134766 5.078125 -2.050781 1.523438 -5.429688 -30.905489 3.846948 0.222817 69.354721 -1.178264 -3.763214 -33.564396 -0.062728 -0.036424 -26.498629 -5.448179 -0.663848 64.927971 1.582068 4.557504 -39.002682 0.298357 0.252745 
0.000000 48.055412 11.874198 11.250000 0.000000 0.000000 27.939453 -0.527344 -0.312500 0.000000 0.000000 0.000000 -26.357422 -1.425781 0.448976 5.595703 2.050781 -0.214844 0.000000 0.000000 0.000000 -74.072266 -27.490232 -5.146484 -0.683594 -5.947266 6.044921 3.398438 -0.849609 -6.152472 0.000000 0.000000 0.000000 70.605469 39.404297 -7.480468 -0.039063 3.134766 5.078125 -2.050781 1.523438 -5.429688 -20.743732 3.806837 0.162987 51.200829 -2.532835 -3.401480 -25.478186 0.122302 0.080965 -17.631907 -5.418528 -0.613616 48.188862 2.841557 3.819921 -29.518055 0.422721 0.313430 
0.000000 51.476650 20.094801 22.324219 0.000000 0.000000 35.146484 -0.527344 -0.312500 0.000000 0.000000 0.000000 -26.357422 -1.425781 0.448976 5.595703 2.050781 -0.214844 0.000000 0.000000 0.000000 -63.964844 -65.878906 -16.679688 -0.683594 -5.947266 6.044921 3.398438 -0.849609 -6.152472 0.000000 0.000000 0.000000 54.160156 73.623047 -24.160156 -0.039063 3.134766 5.078125 -2.050781 1.523438 -5.429688 -10.782530 3.805363 0.134769 32.670216 -3.360438 -2.373870 -16.347601 0.039599 0.021895 -9.041332 -5.399544 -0.570340 31.159758 4.101166 2.961239 -19.694252 0.323579 0.191474 
0.000000 51.880253 28.315397 33.564449 0.000000 0.000000 42.529297 -0.527344 -0.312500 0.000000 0.000000 0.000000 -26.357422 -1.425781 0.448976 5.595703 2.050781 -0.214844 0.000000 0.000000 0.000000 -104.306641 -107.246094 22.500439 -0.683594 -5.947266 6.044921 3.398438 -0.849609 -6.152472 0.000000 0.000000 0.000000 95.810562 111.250000 17.098946 -0.039063 3.134766 5.078125 -2.050781 1.523438 -5.429688 -0.866733 3.750341 0.101776 14.815760 -3.670315 -1.335688 -8.437218 0.068106 0.020989 -0.390249 -5.432604 -0.350591 13.981100 4.745097 1.027681 -9.847090 0.336105 0.150910 
0.000000 50.004353 36.535999 44.824219 0.000000 0.000000 49.736328 -0.527344 -0.312500 0.000000 0.000000 0.000000 -26.357422 -1.425781 0.448976 5.595703 2.050781 -0.214844 0.000000 0.000000 0.000000 -88.212891 -145.146484 5.189730 -0.683594 -5.947266 6.044921 3.398438 -0.849609 -6.152472 0.000000 0.000000 0.000000 84.482422 145.693359 5.185547 -0.039063 3.134766 5.078125 -2.050781 1.523438 -5.429688 8.865870 3.798284 -0.127110 -2.779612 -3.831977 0.277398 -0.011952 -0.014443 -0.005480 8.003646 -5.426885 -0.341974 -2.437470 5.052705 -0.105557 -0.312222 0.124924 0.235950 
